<?xml version="1.0" standalone="no"?>
<!DOCTYPE svg PUBLIC "-//W3C//DTD SVG 20010904//EN"
 "http://www.w3.org/TR/2001/REC-SVG-20010904/DTD/svg10.dtd">
<svg version="1.0" xmlns="http://www.w3.org/2000/svg"
 width="512.000000pt" height="512.000000pt" viewBox="0 0 512.000000 512.000000"
 preserveAspectRatio="xMidYMid meet">

<g transform="translate(0.000000,512.000000) scale(0.100000,-0.100000)"
fill="#CBC3E3" stroke="none">
<path d="M2726 3763 c5 -643 9 -1321 9 -1508 0 -331 -1 -342 -24 -410 -67
-198 -200 -351 -388 -444 -97 -49 -161 -67 -283 -82 -111 -13 -234 -5 -332 22
-79 22 -136 50 -222 108 -54 36 -61 38 -71 23 -33 -48 -615 -1004 -615 -1010
0 -17 216 -132 344 -183 242 -97 413 -129 737 -136 275 -6 425 8 635 62 777
199 1331 789 1456 1550 14 86 15 1338 2 2573 l-6 602 -625 0 -625 0 8 -1167z"/>
</g>
</svg>
